<svg width="240" height="60" viewBox="0 0 240 60" fill="none" xmlns="http://www.w3.org/2000/svg">
  <path d="M28.5 12C18.835 12 11 19.835 11 29.5C11 39.165 18.835 47 28.5 47C38.165 47 46 39.165 46 29.5C46 19.835 38.165 12 28.5 12Z" fill="url(#paint0_linear)"/>
  <path d="M28.5 44C20.492 44 14 37.508 14 29.5C14 21.492 20.492 15 28.5 15C36.508 15 43 21.492 43 29.5C43 37.508 36.508 44 28.5 44Z" fill="white"/>
  <path d="M28.5 42C21.6 42 16 36.4 16 29.5C16 22.6 21.6 17 28.5 17C35.4 17 41 22.6 41 29.5C41 36.4 35.4 42 28.5 42Z" fill="url(#paint1_radial)" fill-opacity="0.05"/>
  <path d="M22 24.5V36H25V24.5H22Z" fill="#4361EE"/>
  <path d="M32 24.5V36H35V24.5H32Z" fill="#F72585"/>
  <path d="M27 24.5V36H30V24.5H27Z" fill="url(#paint2_linear)"/>
  <path d="M60.928 39V19.4H66.176C68.096 19.4 69.664 19.672 70.88 20.216C72.096 20.744 72.992 21.512 73.568 22.52C74.144 23.512 74.432 24.712 74.432 26.12C74.432 27.528 74.144 28.736 73.568 29.744C72.992 30.736 72.096 31.504 70.88 32.048C69.664 32.592 68.096 32.864 66.176 32.864H63.76V39H60.928ZM63.76 30.488H66.032C67.632 30.488 68.816 30.16 69.584 29.504C70.352 28.848 70.736 27.752 70.736 26.216C70.736 24.696 70.352 23.6 69.584 22.928C68.832 22.256 67.648 21.92 66.032 21.92H63.76V30.488Z" fill="#212529"/>
  <path d="M85.3975 39.288C83.7495 39.288 82.3095 38.952 81.0775 38.28C79.8615 37.592 78.9175 36.632 78.2455 35.4C77.5895 34.152 77.2615 32.688 77.2615 31.008C77.2615 29.328 77.5895 27.872 78.2455 26.64C78.9175 25.392 79.8615 24.432 81.0775 23.76C82.3095 23.072 83.7495 22.728 85.3975 22.728C87.0455 22.728 88.4775 23.072 89.6935 23.76C90.9255 24.432 91.8695 25.392 92.5255 26.64C93.1975 27.872 93.5335 29.328 93.5335 31.008C93.5335 32.688 93.1975 34.152 92.5255 35.4C91.8695 36.632 90.9255 37.592 89.6935 38.28C88.4775 38.952 87.0455 39.288 85.3975 39.288ZM85.3975 36.744C86.8295 36.744 87.9415 36.272 88.7335 35.328C89.5255 34.384 89.9215 32.976 89.9215 31.104C89.9215 29.232 89.5255 27.824 88.7335 26.88C87.9415 25.936 86.8295 25.464 85.3975 25.464C83.9655 25.464 82.8535 25.936 82.0615 26.88C81.2695 27.824 80.8735 29.232 80.8735 31.104C80.8735 32.976 81.2695 34.384 82.0615 35.328C82.8535 36.272 83.9655 36.744 85.3975 36.744Z" fill="#212529"/>
  <path d="M98.5219 39V19.4H102.134V27.56L109.334 19.4H113.702L106.766 26.528L114.23 39H110.006L104.446 29.24L102.134 31.84V39H98.5219Z" fill="#212529"/>
  <path d="M125.463 39.288C123.639 39.288 122.055 38.96 120.711 38.304C119.367 37.648 118.327 36.712 117.591 35.496C116.871 34.264 116.511 32.816 116.511 31.152C116.511 29.488 116.871 28.048 117.591 26.832C118.327 25.6 119.351 24.656 120.663 24C121.991 23.344 123.519 23.016 125.247 23.016C126.895 23.016 128.343 23.328 129.591 23.952C130.839 24.576 131.807 25.48 132.495 26.664C133.183 27.832 133.527 29.232 133.527 30.864C133.527 31.104 133.511 31.368 133.479 31.656C133.463 31.944 133.431 32.2 133.383 32.424H120.231C120.327 33.672 120.799 34.648 121.647 35.352C122.511 36.056 123.575 36.408 124.839 36.408C125.815 36.408 126.631 36.208 127.287 35.808C127.959 35.392 128.455 34.848 128.775 34.176H132.567C132.151 35.76 131.247 37.048 129.855 38.04C128.463 38.872 127.143 39.288 125.463 39.288ZM125.247 25.896C124.095 25.896 123.103 26.2 122.271 26.808C121.439 27.416 120.903 28.296 120.663 29.448H129.591C129.463 28.36 129.023 27.496 128.271 26.856C127.519 26.216 126.527 25.896 125.247 25.896Z" fill="#212529"/>
  <path d="M148.615 23.016C151.463 23.016 153.671 23.816 155.239 25.416C156.807 27 157.591 29.216 157.591 32.064C157.591 34.912 156.807 37.128 155.239 38.712C153.671 40.28 151.463 41.064 148.615 41.064C145.767 41.064 143.559 40.28 141.991 38.712C140.423 37.128 139.639 34.912 139.639 32.064C139.639 29.216 140.423 27 141.991 25.416C143.559 23.816 145.767 23.016 148.615 23.016ZM148.615 25.56C146.823 25.56 145.431 26.136 144.439 27.288C143.447 28.424 142.951 30 142.951 32.016C142.951 34.032 143.447 35.624 144.439 36.792C145.431 37.944 146.823 38.52 148.615 38.52C150.407 38.52 151.799 37.944 152.791 36.792C153.783 35.624 154.279 34.032 154.279 32.016C154.279 30 153.783 28.424 152.791 27.288C151.799 26.136 150.407 25.56 148.615 25.56Z" fill="#212529"/>
  <path d="M160.953 39V23.304H164.073V25.896C164.521 24.968 165.193 24.24 166.089 23.712C167.001 23.184 168.089 22.92 169.353 22.92V26.256H168.489C167.625 26.256 166.857 26.376 166.185 26.616C165.513 26.856 164.985 27.288 164.601 27.912C164.217 28.52 164.025 29.384 164.025 30.504V39H160.953Z" fill="#212529"/>
  <path d="M181.483 39.288C179.659 39.288 178.075 38.96 176.731 38.304C175.387 37.648 174.347 36.712 173.611 35.496C172.891 34.264 172.531 32.816 172.531 31.152C172.531 29.488 172.891 28.048 173.611 26.832C174.347 25.6 175.371 24.656 176.683 24C178.011 23.344 179.539 23.016 181.267 23.016C182.915 23.016 184.363 23.328 185.611 23.952C186.859 24.576 187.827 25.48 188.515 26.664C189.203 27.832 189.547 29.232 189.547 30.864C189.547 31.104 189.531 31.368 189.499 31.656C189.483 31.944 189.451 32.2 189.403 32.424H176.251C176.347 33.672 176.819 34.648 177.667 35.352C178.531 36.056 179.595 36.408 180.859 36.408C181.835 36.408 182.651 36.208 183.307 35.808C183.979 35.392 184.475 34.848 184.795 34.176H188.587C188.171 35.76 187.267 37.048 185.875 38.04C184.483 38.872 183.163 39.288 181.483 39.288ZM181.267 25.896C180.115 25.896 179.123 26.2 178.291 26.808C177.459 27.416 176.923 28.296 176.683 29.448H185.611C185.483 28.36 185.043 27.496 184.291 26.856C183.539 26.216 182.547 25.896 181.267 25.896Z" fill="#212529"/>
  <path d="M193.262 39V23.304H196.334V25.896C196.686 24.936 197.294 24.192 198.158 23.664C199.038 23.136 200.094 22.872 201.326 22.872C203.086 22.872 204.474 23.36 205.494 24.336C206.53 25.312 207.062 26.76 207.094 28.68V39H204.022V29.112C204.006 27.848 203.694 26.896 203.086 26.256C202.494 25.616 201.646 25.296 200.542 25.296C199.438 25.296 198.542 25.624 197.854 26.28C197.166 26.92 196.798 27.872 196.75 29.136V39H193.262Z" fill="#212529"/>
  <path d="M212.243 39V23.304H215.315V25.896C215.667 24.936 216.275 24.192 217.139 23.664C218.019 23.136 219.075 22.872 220.307 22.872C222.067 22.872 223.459 23.36 224.483 24.336C225.523 25.312 226.059 26.76 226.099 28.68V39H223.027V29.112C223.011 27.848 222.699 26.896 222.091 26.256C221.499 25.616 220.651 25.296 219.547 25.296C218.443 25.296 217.547 25.624 216.859 26.28C216.171 26.92 215.803 27.872 215.755 29.136V39H212.243Z" fill="#212529"/>
  <path d="M230.232 21.392V19.28H233.448V21.392H230.232ZM230.376 39V23.304H233.304V39H230.376Z" fill="#212529"/>
  <path d="M66.176 32.864C68.096 32.864 69.664 32.592 70.88 32.048C72.096 31.504 72.992 30.736 73.568 29.744C74.144 28.736 74.432 27.528 74.432 26.12C74.432 24.712 74.144 23.512 73.568 22.52C72.992 21.512 72.096 20.744 70.88 20.216C69.664 19.672 68.096 19.4 66.176 19.4H66.176" stroke="#4361EE" stroke-width="1" stroke-linecap="round"/>
  <path d="M125.247 23.016C123.519 23.016 121.991 23.344 120.663 24C119.351 24.656 118.327 25.6 117.591 26.832C116.871 28.048 116.511 29.488 116.511 31.152C116.511 32.816 116.871 34.264 117.591 35.496C118.327 36.712 119.367 37.648 120.711 38.304C122.055 38.96 123.639 39.288 125.463 39.288H125.463" stroke="#F72585" stroke-width="1" stroke-linecap="round"/>
  <defs>
    <linearGradient id="paint0_linear" x1="11" y1="12" x2="46" y2="47" gradientUnits="userSpaceOnUse">
      <stop stop-color="#4361EE"/>
      <stop offset="1" stop-color="#F72585"/>
    </linearGradient>
    <radialGradient id="paint1_radial" cx="0" cy="0" r="1" gradientUnits="userSpaceOnUse" gradientTransform="translate(28.5 29.5) rotate(90) scale(12.5)">
      <stop stop-color="#4361EE"/>
      <stop offset="1" stop-color="#F72585"/>
    </radialGradient>
    <linearGradient id="paint2_linear" x1="27" y1="24.5" x2="30" y2="36" gradientUnits="userSpaceOnUse">
      <stop stop-color="#4361EE"/>
      <stop offset="1" stop-color="#F72585"/>
    </linearGradient>
  </defs>
</svg> 