<svg width="1440" height="1000" viewBox="0 0 1440 1000" fill="none" xmlns="http://www.w3.org/2000/svg">
  <g opacity="0.4">
    <path d="M-147 216.5L147 -77.5M93 216.5L387 -77.5M333 216.5L627 -77.5M573 216.5L867 -77.5M813 216.5L1107 -77.5M1053 216.5L1347 -77.5M1293 216.5L1587 -77.5M1533 216.5L1827 -77.5M-147 456.5L147 162.5M93 456.5L387 162.5M333 456.5L627 162.5M573 456.5L867 162.5M813 456.5L1107 162.5M1053 456.5L1347 162.5M1293 456.5L1587 162.5M1533 456.5L1827 162.5M-147 696.5L147 402.5M93 696.5L387 402.5M333 696.5L627 402.5M573 696.5L867 402.5M813 696.5L1107 402.5M1053 696.5L1347 402.5M1293 696.5L1587 402.5M1533 696.5L1827 402.5M-147 936.5L147 642.5M93 936.5L387 642.5M333 936.5L627 642.5M573 936.5L867 642.5M813 936.5L1107 642.5M1053 936.5L1347 642.5M1293 936.5L1587 642.5M1533 936.5L1827 642.5" stroke="white" stroke-width="2" stroke-linecap="round" stroke-linejoin="round"/>
  </g>
  <circle cx="240" cy="180" r="40" fill="white" fill-opacity="0.05"/>
  <circle cx="480" cy="320" r="60" fill="white" fill-opacity="0.05"/>
  <circle cx="720" cy="640" r="80" fill="white" fill-opacity="0.05"/>
  <circle cx="960" cy="480" r="50" fill="white" fill-opacity="0.05"/>
  <circle cx="1200" cy="240" r="70" fill="white" fill-opacity="0.05"/>
</svg> 